<svg width="60" height="60" viewBox="0 0 60 60" fill="none" xmlns="http://www.w3.org/2000/svg">
<rect width="60" height="60" rx="30" fill="url(#paint0_linear_1_260)"/>
<path d="M25.952 34.28C27.488 32.952 28.696 31.864 29.576 31.016C30.472 30.152 31.216 29.256 31.808 28.328C32.4 27.4 32.696 26.472 32.696 25.544C32.696 24.584 32.464 23.832 32 23.288C31.552 22.744 30.84 22.472 29.864 22.472C28.92 22.472 28.184 22.776 27.656 23.384C27.144 23.976 26.872 24.776 26.84 25.784H24.2C24.248 23.96 24.792 22.568 25.832 21.608C26.888 20.632 28.224 20.144 29.84 20.144C31.584 20.144 32.944 20.624 33.92 21.584C34.912 22.544 35.408 23.824 35.408 25.424C35.408 26.576 35.112 27.688 34.52 28.76C33.944 29.816 33.248 30.768 32.432 31.616C31.632 32.448 30.608 33.416 29.36 34.52L28.28 35.48H35.888V37.76H24.224V35.768L25.952 34.28Z" fill="black"/>
<defs>
<linearGradient id="paint0_linear_1_260" x1="17.1429" y1="12.8571" x2="33.5714" y2="82.1429" gradientUnits="userSpaceOnUse">
<stop stop-color="#3778B8"/>
<stop offset="1" stop-color="#B837AB" stop-opacity="0.33"/>
</linearGradient>
</defs>
</svg>
