<svg width="22" height="22" viewBox="0 0 22 22" fill="none" xmlns="http://www.w3.org/2000/svg">
<path d="M8.82488 16.2438C8.70265 16.2438 8.58807 16.2245 8.48113 16.186C8.37418 16.1475 8.27488 16.0827 8.18321 15.9917L4.24154 12.05C4.07349 11.8819 3.99313 11.6641 4.00046 11.3964C4.00779 11.1287 4.09579 10.9112 4.26446 10.7437C4.43252 10.5757 4.6464 10.4917 4.90613 10.4917C5.16585 10.4917 5.37974 10.5757 5.54779 10.7437L8.82488 14.0208L16.5936 6.25208C16.7617 6.08403 16.9795 6 17.2472 6C17.5149 6 17.7324 6.08403 17.8999 6.25208C18.0679 6.42014 18.152 6.638 18.152 6.90567C18.152 7.17333 18.0679 7.39089 17.8999 7.55833L9.46654 15.9917C9.37488 16.0833 9.27557 16.1484 9.16863 16.1869C9.06168 16.2254 8.9471 16.2444 8.82488 16.2438Z" fill="#B837AB"/>
</svg>
