<svg width="210" height="100" viewBox="0 0 210 100" fill="none" xmlns="http://www.w3.org/2000/svg">
<g clip-path="url(#clip0_1_291)">
<mask id="mask0_1_291" style="mask-type:luminance" maskUnits="userSpaceOnUse" x="55" y="27" width="16" height="22">
<path d="M61.4154 45.7968V35.228C61.4343 34.1712 61.6902 33.1321 62.1643 32.1875C62.6385 31.2429 63.3187 30.4168 64.1548 29.7702C64.9909 29.1237 65.9616 28.6731 66.9951 28.4519C68.0286 28.2307 69.0986 28.2444 70.1262 28.492C68.667 27.6496 66.5541 27.935 61.4154 27.9764C59.9223 28.2217 58.554 28.9589 57.5279 30.071C56.5018 31.183 55.8767 32.606 55.752 34.114V48.6907L61.4154 45.7968Z" fill="white"/>
</mask>
<g mask="url(#mask0_1_291)">
<path d="M70.1262 27.6497H55.752V48.6785H70.1262V27.6497Z" fill="url(#paint0_linear_1_291)"/>
</g>
<mask id="mask1_1_291" style="mask-type:luminance" maskUnits="userSpaceOnUse" x="61" y="28" width="20" height="35">
<path d="M61.6241 35.228C63.877 35.2344 66.0358 36.1323 67.6288 37.7253C69.2219 39.3183 70.1197 41.4771 70.1262 43.73V62.6951C71.6913 61.7913 72.5091 59.591 75.5058 54.4001C81.4991 44.02 81.4991 47.1686 75.5058 36.7884C72.5091 31.5976 71.6928 29.3957 70.1262 28.492C69.0987 28.2444 68.0286 28.2307 66.9951 28.4519C65.9616 28.6731 64.9909 29.1237 64.1548 29.7702C63.3187 30.4168 62.6385 31.2429 62.1644 32.1875C61.6902 33.1321 61.4343 34.1712 61.4155 35.228H61.6241Z" fill="white"/>
</mask>
<g mask="url(#mask1_1_291)">
<path d="M81.4976 27.9918H61.4155V62.6966H81.4976V27.9918Z" fill="url(#paint1_linear_1_291)"/>
</g>
<mask id="mask2_1_291" style="mask-type:luminance" maskUnits="userSpaceOnUse" x="49" y="50" width="16" height="22">
<path d="M58.5845 53.2033V63.7721C58.5657 64.8289 58.3097 65.868 57.8356 66.8126C57.3615 67.7572 56.6813 68.5833 55.8451 69.2299C55.009 69.8764 54.0384 70.327 53.0049 70.5482C51.9713 70.7694 50.9013 70.7557 49.8738 70.5081C51.333 71.3505 53.4458 71.0651 58.5845 71.0221C60.0758 70.7768 61.4425 70.0404 62.4676 68.9299C63.4928 67.8194 64.1178 66.3984 64.2433 64.8923V50.3156L58.5845 53.2033Z" fill="white"/>
</mask>
<g mask="url(#mask2_1_291)">
<path d="M64.2479 50.3217H49.8738V71.3505H64.2479V50.3217Z" fill="url(#paint2_linear_1_291)"/>
</g>
<mask id="mask3_1_291" style="mask-type:luminance" maskUnits="userSpaceOnUse" x="40" y="36" width="19" height="35">
<path d="M58.3759 63.7721C56.123 63.7656 53.9642 62.8678 52.3712 61.2748C50.7781 59.6817 49.8803 57.5229 49.8738 55.2701V36.3035C48.3087 37.2088 47.4909 39.4045 44.4943 44.5999C38.5101 54.9801 38.5101 51.8315 44.4943 62.2116C47.4909 67.4025 48.3072 69.6043 49.8738 70.5081C50.9013 70.7557 51.9714 70.7694 53.0049 70.5482C54.0384 70.3269 55.0091 69.8764 55.8452 69.2298C56.6813 68.5833 57.3615 67.7572 57.8357 66.8126C58.3098 65.8679 58.5657 64.8289 58.5846 63.7721H58.3759Z" fill="white"/>
</mask>
<g mask="url(#mask3_1_291)">
<path d="M58.5845 36.3035H38.5024V71.0083H58.5845V36.3035Z" fill="url(#paint3_linear_1_291)"/>
</g>
</g>
<path d="M86.696 61V38.6H92.808V47.176H100.552V38.6H106.664V61H100.552V52.136H92.808V61H86.696ZM109.944 61V44.52H115.512V61H109.944ZM112.728 42.728C111.874 42.728 111.138 42.4187 110.52 41.8C109.922 41.1813 109.624 40.456 109.624 39.624C109.624 38.7707 109.922 38.0453 110.52 37.448C111.138 36.8293 111.874 36.52 112.728 36.52C113.581 36.52 114.306 36.8293 114.904 37.448C115.522 38.0453 115.832 38.7707 115.832 39.624C115.832 40.456 115.522 41.1813 114.904 41.8C114.306 42.4187 113.581 42.728 112.728 42.728ZM118.629 61V49.48C118.629 47.944 119.066 46.7387 119.941 45.864C120.837 44.968 122.074 44.52 123.653 44.52H128.709V48.872H125.349C125.008 48.872 124.73 48.9787 124.517 49.192C124.304 49.4053 124.197 49.6827 124.197 50.024V61H118.629ZM139.621 44.104C141.008 44.104 142.256 44.3173 143.365 44.744C144.474 45.1707 145.413 45.7893 146.181 46.6C146.97 47.3893 147.568 48.328 147.973 49.416C148.4 50.504 148.613 51.6987 148.613 53C148.613 54.664 148.272 56.1253 147.589 57.384C146.928 58.6427 146 59.624 144.805 60.328C143.61 61.032 142.256 61.384 140.741 61.384C140.144 61.384 139.568 61.3093 139.013 61.16C138.458 61.0107 137.957 60.7973 137.509 60.52C137.061 60.2213 136.666 59.8693 136.325 59.464H136.197V67.88H130.629V53.064C130.629 51.2507 131.002 49.672 131.749 48.328C132.496 46.984 133.541 45.9493 134.885 45.224C136.25 44.4773 137.829 44.104 139.621 44.104ZM139.621 48.936C138.981 48.936 138.405 49.1067 137.893 49.448C137.381 49.768 136.986 50.216 136.709 50.792C136.432 51.3467 136.293 51.9973 136.293 52.744C136.293 53.4267 136.432 54.056 136.709 54.632C136.986 55.1867 137.381 55.6347 137.893 55.976C138.405 56.296 138.981 56.456 139.621 56.456C140.304 56.456 140.89 56.296 141.381 55.976C141.893 55.6347 142.277 55.1867 142.533 54.632C142.81 54.056 142.949 53.4267 142.949 52.744C142.949 51.9973 142.81 51.3467 142.533 50.792C142.277 50.216 141.893 49.768 141.381 49.448C140.89 49.1067 140.304 48.936 139.621 48.936ZM159.672 61.384C158.008 61.384 156.494 61.0213 155.128 60.296C153.784 59.5493 152.707 58.5253 151.896 57.224C151.086 55.9227 150.68 54.4293 150.68 52.744C150.68 51.08 151.086 49.5973 151.896 48.296C152.707 46.9947 153.795 45.9813 155.16 45.256C156.526 44.5093 158.04 44.136 159.704 44.136C161.368 44.136 162.872 44.5093 164.216 45.256C165.582 45.9813 166.659 46.9947 167.448 48.296C168.259 49.5973 168.664 51.08 168.664 52.744C168.664 54.4293 168.259 55.9227 167.448 57.224C166.659 58.5253 165.582 59.5493 164.216 60.296C162.872 61.0213 161.358 61.384 159.672 61.384ZM159.672 56.456C160.355 56.456 160.952 56.296 161.464 55.976C161.998 55.656 162.403 55.2187 162.68 54.664C162.958 54.088 163.096 53.448 163.096 52.744C163.096 52.0187 162.958 51.3787 162.68 50.824C162.403 50.2693 161.998 49.832 161.464 49.512C160.952 49.192 160.355 49.032 159.672 49.032C158.99 49.032 158.392 49.192 157.88 49.512C157.368 49.832 156.963 50.2693 156.664 50.824C156.387 51.3787 156.248 52.0187 156.248 52.744C156.248 53.448 156.387 54.088 156.664 54.664C156.963 55.2187 157.368 55.656 157.88 55.976C158.392 56.296 158.99 56.456 159.672 56.456Z" fill="#F8F9FA"/>
<path d="M210 99H0V101H210V99Z" fill="#A9BDD0" mask="url(#path-1-inside-1_1_291)"/>
<defs>
<linearGradient id="paint0_linear_1_291" x1="62.8716" y1="48.4222" x2="63.0081" y2="27.9872" gradientUnits="userSpaceOnUse">
<stop offset="0.01" stop-color="white"/>
<stop offset="1" stop-color="white"/>
</linearGradient>
<linearGradient id="paint1_linear_1_291" x1="63.1248" y1="30.344" x2="76.4279" y2="54.2928" gradientUnits="userSpaceOnUse">
<stop stop-color="#8DA1B2"/>
<stop offset="0.09" stop-color="#A6B6C3"/>
<stop offset="0.19" stop-color="#BFCAD2"/>
<stop offset="0.32" stop-color="#D2DADF"/>
<stop offset="0.46" stop-color="#DFE5E7"/>
<stop offset="0.64" stop-color="#E7EBED"/>
<stop offset="1" stop-color="#E9EDEE"/>
</linearGradient>
<linearGradient id="paint2_linear_1_291" x1="57.1284" y1="50.5794" x2="56.9933" y2="71.0129" gradientUnits="userSpaceOnUse">
<stop stop-color="#E5EFF8"/>
<stop offset="0.41" stop-color="#ECF3FA"/>
<stop offset="1" stop-color="white"/>
</linearGradient>
<linearGradient id="paint3_linear_1_291" x1="56.8752" y1="68.6561" x2="43.5721" y2="44.7073" gradientUnits="userSpaceOnUse">
<stop stop-color="#A1BAC9"/>
<stop offset="1" stop-color="#FCFCFC"/>
</linearGradient>
<clipPath id="clip0_1_291">
<rect width="40" height="43.2069" fill="white" transform="translate(40 27.8966)"/>
</clipPath>
</defs>
</svg>
