<svg width="22" height="22" viewBox="0 0 22 22" fill="none" xmlns="http://www.w3.org/2000/svg">
<path fill-rule="evenodd" clip-rule="evenodd" d="M7 5.375C7 5.01033 7.14487 4.66059 7.40273 4.40273C7.66059 4.14487 8.01033 4 8.375 4C8.73967 4 9.08941 4.14487 9.34727 4.40273C9.60513 4.66059 9.75 5.01033 9.75 5.375V15H13.875C14.2397 15 14.5894 15.1449 14.8473 15.4027C15.1051 15.6606 15.25 16.0103 15.25 16.375C15.25 16.7397 15.1051 17.0894 14.8473 17.3473C14.5894 17.6051 14.2397 17.75 13.875 17.75H8.375C8.01033 17.75 7.66059 17.6051 7.40273 17.3473C7.14487 17.0894 7 16.7397 7 16.375V5.375ZM8.375 4.91667C8.25344 4.91667 8.13686 4.96496 8.05091 5.05091C7.96495 5.13686 7.91667 5.25344 7.91667 5.375V16.375C7.91667 16.4966 7.96495 16.6131 8.05091 16.6991C8.13686 16.785 8.25344 16.8333 8.375 16.8333H13.875C13.9966 16.8333 14.1131 16.785 14.1991 16.6991C14.285 16.6131 14.3333 16.4966 14.3333 16.375C14.3333 16.2534 14.285 16.1369 14.1991 16.0509C14.1131 15.965 13.9966 15.9167 13.875 15.9167H9.29167C9.17011 15.9167 9.05353 15.8684 8.96758 15.7824C8.88162 15.6965 8.83333 15.5799 8.83333 15.4583V5.375C8.83333 5.25344 8.78505 5.13686 8.69909 5.05091C8.61314 4.96496 8.49656 4.91667 8.375 4.91667Z" fill="#B837AB"/>
</svg>
