<svg width="12" height="14" viewBox="0 0 12 14" fill="none" xmlns="http://www.w3.org/2000/svg">
<path fill-rule="evenodd" clip-rule="evenodd" d="M0 12.3758V1.37585C1.4104e-05 1.09326 0.0870977 0.817536 0.2494 0.586203C0.411702 0.35487 0.641339 0.179162 0.907061 0.082991C1.17278 -0.0131798 1.46168 -0.0251427 1.73445 0.0487306C2.00721 0.122604 2.25059 0.278725 2.43146 0.495848L5.95833 4.72764L9.48521 0.494932C9.66613 0.277748 9.90959 0.121602 10.1824 0.0477541C10.4553 -0.0260942 10.7443 -0.014056 11.01 0.08223C11.2758 0.178516 11.5054 0.35437 11.6677 0.585849C11.8299 0.817327 11.9168 1.09318 11.9167 1.37585V12.3758C11.9167 12.7405 11.7718 13.0903 11.5139 13.3481C11.2561 13.606 10.9063 13.7508 10.5417 13.7508C10.177 13.7508 9.82726 13.606 9.5694 13.3481C9.31153 13.0903 9.16667 12.7405 9.16667 12.3758V5.1736L7.01479 7.75585C6.88575 7.91075 6.72422 8.03538 6.54166 8.12091C6.35909 8.20644 6.15994 8.25078 5.95833 8.25078C5.75672 8.25078 5.55758 8.20644 5.37501 8.12091C5.19244 8.03538 5.03092 7.91075 4.90188 7.75585L2.75 5.17406V12.3758C2.75 12.5564 2.71443 12.7352 2.64533 12.902C2.57623 13.0689 2.47495 13.2204 2.34727 13.3481C2.21959 13.4758 2.06801 13.5771 1.90119 13.6462C1.73437 13.7153 1.55557 13.7508 1.375 13.7508C1.19443 13.7508 1.01563 13.7153 0.84881 13.6462C0.681988 13.5771 0.530409 13.4758 0.402728 13.3481C0.275047 13.2204 0.173766 13.0689 0.104666 12.902C0.0355653 12.7352 -3.80518e-09 12.5564 0 12.3758ZM0.916667 1.37585V12.3758C0.916667 12.4974 0.964955 12.614 1.05091 12.6999C1.13686 12.7859 1.25344 12.8342 1.375 12.8342C1.49656 12.8342 1.61314 12.7859 1.69909 12.6999C1.78504 12.614 1.83333 12.4974 1.83333 12.3758V3.90768C1.83338 3.81352 1.86242 3.72166 1.91651 3.64459C1.9706 3.56751 2.04712 3.50897 2.13566 3.47692C2.2242 3.44487 2.32046 3.44087 2.41135 3.46546C2.50225 3.49005 2.58336 3.54203 2.64367 3.61435L5.60633 7.16918C5.64935 7.22076 5.70317 7.26226 5.764 7.29074C5.82483 7.31921 5.89117 7.33397 5.95833 7.33397C6.0255 7.33397 6.09184 7.31921 6.15267 7.29074C6.21349 7.26226 6.26732 7.22076 6.31033 7.16918L9.273 3.61435C9.33331 3.54203 9.41442 3.49005 9.50531 3.46546C9.59621 3.44087 9.69247 3.44487 9.78101 3.47692C9.86954 3.50897 9.94606 3.56751 10.0002 3.64459C10.0542 3.72166 10.0833 3.81352 10.0833 3.90768V12.3758C10.0833 12.4974 10.1316 12.614 10.2176 12.6999C10.3035 12.7859 10.4201 12.8342 10.5417 12.8342C10.6632 12.8342 10.7798 12.7859 10.8658 12.6999C10.9517 12.614 11 12.4974 11 12.3758V1.37585C11 1.28169 10.9709 1.18983 10.9168 1.11275C10.8627 1.03568 10.7862 0.977139 10.6977 0.945089C10.6091 0.913039 10.5129 0.909036 10.422 0.933624C10.3311 0.958213 10.25 1.0102 10.1897 1.08251L6.31033 5.73735C6.26732 5.78893 6.21349 5.83043 6.15267 5.8589C6.09184 5.88738 6.0255 5.90214 5.95833 5.90214C5.89117 5.90214 5.82483 5.88738 5.764 5.8589C5.70317 5.83043 5.64935 5.78893 5.60633 5.73735L1.727 1.08251C1.66669 1.0102 1.58558 0.958213 1.49469 0.933624C1.40379 0.909036 1.30753 0.913039 1.21899 0.945089C1.13046 0.977139 1.05394 1.03568 0.999844 1.11275C0.945751 1.18983 0.916709 1.28169 0.916667 1.37585Z" fill="#B837AB"/>
</svg>
