<svg width="40" height="44" viewBox="0 0 40 44" fill="none" xmlns="http://www.w3.org/2000/svg">
<g clip-path="url(#clip0_323_39)">
<mask id="mask0_323_39" style="mask-type:luminance" maskUnits="userSpaceOnUse" x="15" y="0" width="16" height="21">
<path d="M21.4158 17.9005V7.33144C21.4347 6.27481 21.6907 5.23592 22.1648 4.29143C22.6388 3.34694 23.319 2.52096 24.1549 1.87444C24.9909 1.22792 25.9613 0.777366 26.9947 0.556024C28.028 0.334682 29.0979 0.348203 30.1253 0.595589C28.6655 -0.246971 26.5545 0.0385118 21.4158 0.0801769C19.924 0.325701 18.5567 1.06212 17.5309 2.17271C16.505 3.2833 15.8791 4.70452 15.7524 6.21111V20.7815L21.4158 17.9005Z" fill="white"/>
</mask>
<g mask="url(#mask0_323_39)">
<path d="M30.1253 -0.246826H15.7524V20.7817H30.1253V-0.246826Z" fill="url(#paint0_linear_323_39)"/>
</g>
<mask id="mask1_323_39" style="mask-type:luminance" maskUnits="userSpaceOnUse" x="21" y="0" width="19" height="35">
<path d="M21.6243 7.33163C23.877 7.33814 26.0355 8.2359 27.6284 9.82877C29.2213 11.4217 30.119 13.5802 30.1256 15.8328V34.7982C31.6919 33.8954 32.5082 31.6933 35.505 26.5037C41.4986 16.123 41.4986 19.271 35.505 8.89175C32.5082 3.70368 31.6919 1.50006 30.1256 0.595778C29.0981 0.348391 28.0283 0.33487 26.9949 0.556212C25.9615 0.777555 24.9911 1.22811 24.1551 1.87463C23.3192 2.52115 22.6391 3.34713 22.165 4.29162C21.6909 5.23611 21.4349 6.275 21.416 7.33163H21.6243Z" fill="white"/>
</mask>
<g mask="url(#mask1_323_39)">
<path d="M40.7486 0.246826H20.666V34.9507H40.7486V0.246826Z" fill="url(#paint1_linear_323_39)"/>
</g>
<mask id="mask2_323_39" style="mask-type:luminance" maskUnits="userSpaceOnUse" x="9" y="22" width="16" height="22">
<path d="M18.584 25.3077V35.8767C18.5642 36.9328 18.3077 37.9711 17.8335 38.9149C17.3592 39.8588 16.6792 40.6842 15.8436 41.3304C15.008 41.9766 14.0381 42.4271 13.0053 42.6488C11.9725 42.8704 10.9031 42.8575 9.87598 42.611C11.3358 43.4536 13.4484 43.1681 18.5871 43.1249C20.0789 42.8793 21.4461 42.1429 22.472 41.0323C23.4979 39.9217 24.1238 38.5005 24.2504 36.9939V22.425L18.584 25.3077Z" fill="white"/>
</mask>
<g mask="url(#mask2_323_39)">
<path d="M24.2455 22.425H9.87256V43.4536H24.2455V22.425Z" fill="url(#paint2_linear_323_39)"/>
</g>
<mask id="mask3_323_39" style="mask-type:luminance" maskUnits="userSpaceOnUse" x="0" y="8" width="19" height="35">
<path d="M18.3746 35.8753C16.1224 35.8676 13.9646 34.9691 12.3724 33.3761C10.7803 31.783 9.883 29.6248 9.87649 27.3725V8.40723C8.31174 9.31151 7.49541 11.5136 4.49862 16.7032C-1.49498 27.084 -1.49498 23.9344 4.49862 34.3152C7.49233 39.5048 8.30865 41.7069 9.87649 42.6112C10.904 42.8582 11.9738 42.8715 13.0071 42.65C14.0404 42.4286 15.0109 41.978 15.8469 41.3316C16.6829 40.6851 17.3631 39.8593 17.8374 38.915C18.3118 37.9707 18.5681 36.9319 18.5876 35.8753H18.3746Z" fill="white"/>
</mask>
<g mask="url(#mask3_323_39)">
<path d="M18.5845 8.40723H-1.49805V43.1111H18.5845V8.40723Z" fill="url(#paint3_linear_323_39)"/>
</g>
</g>
<defs>
<linearGradient id="paint0_linear_323_39" x1="22.2723" y1="0.226921" x2="23.6271" y2="20.6166" gradientUnits="userSpaceOnUse">
<stop offset="0.01" stop-color="#3C87CC"/>
<stop offset="1" stop-color="#61A1D6"/>
</linearGradient>
<linearGradient id="paint1_linear_323_39" x1="40.6853" y1="7.13854" x2="22.0132" y2="26.7149" gradientUnits="userSpaceOnUse">
<stop offset="0.36" stop-color="#296198"/>
<stop offset="0.48" stop-color="#2B6BA6"/>
<stop offset="0.7" stop-color="#2F87CC"/>
<stop offset="0.79" stop-color="#3192DB"/>
</linearGradient>
<linearGradient id="paint2_linear_323_39" x1="17.1285" y1="22.6828" x2="16.9911" y2="43.1156" gradientUnits="userSpaceOnUse">
<stop stop-color="#61A1D6"/>
<stop offset="0.2" stop-color="#65A3D7"/>
<stop offset="0.39" stop-color="#70AADA"/>
<stop offset="0.57" stop-color="#83B5DF"/>
<stop offset="0.74" stop-color="#9DC4E6"/>
<stop offset="0.85" stop-color="#B2D1EC"/>
</linearGradient>
<linearGradient id="paint3_linear_323_39" x1="0.24417" y1="35.1917" x2="20.5752" y2="12.083" gradientUnits="userSpaceOnUse">
<stop offset="0.19" stop-color="#3192DB"/>
<stop offset="0.23" stop-color="#2F85C9"/>
<stop offset="0.3" stop-color="#2C71AE"/>
<stop offset="0.36" stop-color="#2A659E"/>
<stop offset="0.4" stop-color="#296198"/>
</linearGradient>
<clipPath id="clip0_323_39">
<rect width="40" height="43.2067" fill="white"/>
</clipPath>
</defs>
</svg>
