<svg width="11" height="14" viewBox="0 0 11 14" fill="none" xmlns="http://www.w3.org/2000/svg">
<path fill-rule="evenodd" clip-rule="evenodd" d="M0 4.125C0 3.03098 0.434597 1.98177 1.20818 1.20818C1.98177 0.434597 3.03098 0 4.125 0H5.95833C6.81145 3.81341e-05 7.64358 0.264497 8.34019 0.756976C9.0368 1.24946 9.56365 1.94574 9.84821 2.75C9.9084 2.92025 9.93446 3.10068 9.92492 3.281C9.91538 3.46132 9.87041 3.63799 9.79259 3.80093C9.71477 3.96387 9.60562 4.10989 9.47137 4.23065C9.33711 4.35141 9.18039 4.44454 9.01015 4.50473C8.8399 4.56492 8.65947 4.59099 8.47915 4.58144C8.29883 4.5719 8.12215 4.52694 7.95921 4.44911C7.79627 4.37129 7.65025 4.26214 7.5295 4.12789C7.40874 3.99363 7.31561 3.83691 7.25542 3.66667C7.16042 3.39858 6.98471 3.16651 6.75244 3.00236C6.52017 2.83821 6.24275 2.75005 5.95833 2.75H4.125C3.76033 2.75 3.41059 2.89487 3.15273 3.15273C2.89487 3.41059 2.75 3.76033 2.75 4.125C2.75 4.48967 2.89487 4.83941 3.15273 5.09727C3.41059 5.35513 3.76033 5.5 4.125 5.5H5.95833C7.05235 5.5 8.10156 5.9346 8.87515 6.70819C9.64874 7.48177 10.0833 8.53098 10.0833 9.625C10.0833 10.719 9.64874 11.7682 8.87515 12.5418C8.10156 13.3154 7.05235 13.75 5.95833 13.75H4.125C3.27189 13.75 2.43975 13.4855 1.74314 12.993C1.04653 12.5005 0.519686 11.8043 0.235125 11C0.174936 10.8298 0.148868 10.6493 0.158411 10.469C0.167953 10.2887 0.212918 10.112 0.29074 9.94907C0.447907 9.61999 0.729362 9.36683 1.07319 9.24527C1.41701 9.12371 1.79505 9.14372 2.12412 9.30089C2.4532 9.45805 2.70636 9.73951 2.82792 10.0833C2.92291 10.3514 3.09863 10.5835 3.33089 10.7476C3.56316 10.9118 3.84058 10.9999 4.125 11H5.95833C6.32301 11 6.67274 10.8551 6.9306 10.5973C7.18847 10.3394 7.33333 9.98967 7.33333 9.625C7.33333 9.26033 7.18847 8.91059 6.9306 8.65273C6.67274 8.39487 6.32301 8.25 5.95833 8.25H4.125C3.03098 8.25 1.98177 7.8154 1.20818 7.04182C0.434597 6.26823 0 5.21902 0 4.125ZM4.125 0.916667C3.70368 0.916667 3.28648 0.999653 2.89722 1.16089C2.50797 1.32212 2.15429 1.55844 1.85637 1.85637C1.55844 2.15429 1.32212 2.50797 1.16089 2.89722C0.999653 3.28648 0.916667 3.70368 0.916667 4.125C0.916667 4.54632 0.999653 4.96352 1.16089 5.35278C1.32212 5.74203 1.55844 6.09571 1.85637 6.39363C2.15429 6.69156 2.50797 6.92788 2.89722 7.08911C3.28648 7.25035 3.70368 7.33333 4.125 7.33333H5.95833C6.56612 7.33333 7.14901 7.57478 7.57879 8.00455C8.00856 8.43432 8.25 9.01721 8.25 9.625C8.25 10.2328 8.00856 10.8157 7.57879 11.2455C7.14901 11.6752 6.56612 11.9167 5.95833 11.9167H4.125C3.65099 11.9167 3.18862 11.7699 2.80153 11.4963C2.41444 11.2227 2.12166 10.8359 1.9635 10.389C1.94473 10.3307 1.91445 10.2767 1.87446 10.2303C1.83446 10.1839 1.78556 10.1459 1.73065 10.1187C1.67573 10.0915 1.61592 10.0756 1.55475 10.0719C1.49358 10.0682 1.43229 10.0768 1.3745 10.0973C1.31672 10.1177 1.26362 10.1495 1.21834 10.1908C1.17306 10.2321 1.13652 10.282 1.11088 10.3377C1.08525 10.3933 1.07104 10.4536 1.06909 10.5148C1.06714 10.5761 1.0775 10.6371 1.09954 10.6943C1.32082 11.3199 1.73057 11.8615 2.27239 12.2445C2.81421 12.6276 3.46144 12.8333 4.125 12.8333H5.95833C6.80924 12.8333 7.62529 12.4953 8.22697 11.8936C8.82865 11.292 9.16667 10.4759 9.16667 9.625C9.16667 8.7741 8.82865 7.95805 8.22697 7.35637C7.62529 6.75469 6.80924 6.41667 5.95833 6.41667H4.125C3.51721 6.41667 2.93432 6.17522 2.50455 5.74545C2.07478 5.31568 1.83333 4.73279 1.83333 4.125C1.83333 3.51721 2.07478 2.93432 2.50455 2.50455C2.93432 2.07478 3.51721 1.83333 4.125 1.83333H5.95833C6.43234 1.83327 6.89471 1.98014 7.2818 2.25371C7.6689 2.52728 7.96167 2.91412 8.11983 3.36096C8.1386 3.4193 8.16888 3.47328 8.20887 3.51971C8.24887 3.56615 8.29777 3.60409 8.35268 3.63129C8.4076 3.6585 8.46741 3.67441 8.52858 3.6781C8.58976 3.68178 8.65105 3.67316 8.70883 3.65275C8.76661 3.63233 8.81972 3.60053 8.865 3.55924C8.91028 3.51794 8.94681 3.46798 8.97245 3.41232C8.99808 3.35666 9.0123 3.29642 9.01425 3.23516C9.01619 3.17391 9.00584 3.11289 8.98379 3.05571C8.76251 2.43013 8.35276 1.88853 7.81094 1.50546C7.26913 1.12239 6.62189 0.916685 5.95833 0.916667H4.125Z" fill="#B837AB"/>
</svg>
