<svg width="18" height="18" viewBox="0 0 18 18" fill="none" xmlns="http://www.w3.org/2000/svg">
<path d="M16.2397 1.14749C16.0982 1.00611 15.9216 0.905003 15.7281 0.854579C15.5345 0.804155 15.331 0.806238 15.1386 0.860612H15.128L1.63225 4.95561C1.41256 5.01879 1.21733 5.14739 1.07256 5.3243C0.927784 5.5012 0.840336 5.71801 0.821859 5.94585C0.803381 6.1737 0.854749 6.40176 0.969125 6.59968C1.0835 6.7976 1.25545 6.95598 1.46209 7.05374L7.48225 9.90491L10.3334 15.9251C10.4234 16.1179 10.5667 16.2809 10.7464 16.3949C10.926 16.5089 11.1346 16.5691 11.3473 16.5684C11.3797 16.5684 11.412 16.567 11.4444 16.5642C11.6714 16.5458 11.8874 16.4584 12.0633 16.3138C12.2393 16.1691 12.3668 15.9741 12.4287 15.7549L16.5209 2.25913C16.5209 2.25561 16.5209 2.2521 16.5209 2.24858C16.576 2.0566 16.579 1.85342 16.5296 1.65991C16.4801 1.4664 16.3801 1.28953 16.2397 1.14749ZM11.3537 15.4329L11.3501 15.4427L8.58264 9.60045L11.9042 6.27819C12.0052 6.17184 12.0607 6.03023 12.0589 5.88355C12.057 5.73688 11.9979 5.59673 11.8941 5.49301C11.7904 5.38928 11.6503 5.33018 11.5036 5.3283C11.3569 5.32642 11.2153 5.38192 11.109 5.48295L7.7867 8.80452L1.94373 6.03702H1.95357L15.4437 1.94342L11.3537 15.4329Z" fill="white"/>
</svg>
