<svg width="22" height="22" viewBox="0 0 22 22" fill="none" xmlns="http://www.w3.org/2000/svg">
<path fill-rule="evenodd" clip-rule="evenodd" d="M11.3002 6.93218L10.3539 8.84334L9.2786 8.3105L10.7499 5.34025C10.801 5.23802 10.8795 5.15203 10.9767 5.09193C11.0739 5.03183 11.1859 5 11.3002 5C11.4144 5 11.5265 5.03183 11.6236 5.09193C11.7208 5.15203 11.7994 5.23802 11.8504 5.34025L13.3217 8.3105L12.2465 8.84334L11.3002 6.93218ZM15.0337 12.4767C14.9624 12.5458 14.9091 12.6313 14.8784 12.7257C14.8476 12.8201 14.8404 12.9206 14.8573 13.0185L15.4195 16.2834C15.5053 16.7832 14.9791 17.1642 14.529 16.9284L11.5858 15.3863C11.4977 15.3401 11.3997 15.316 11.3002 15.316C11.2007 15.316 11.1027 15.3401 11.0145 15.3863L8.0713 16.9284C7.62126 17.1642 7.09502 16.7832 7.18082 16.2834L7.74307 13.0185C7.75987 12.9207 7.75258 12.8204 7.72184 12.726C7.6911 12.6317 7.63784 12.5463 7.56666 12.4773L5.18566 10.1647C5.10354 10.085 5.04543 9.98398 5.01792 9.87297C4.99042 9.76196 4.99464 9.64546 5.03009 9.53672C5.06554 9.42799 5.13081 9.33139 5.21846 9.25793C5.30611 9.18446 5.41263 9.13708 5.52588 9.12117L8.81596 8.64473C9.01638 8.61592 9.18919 8.49111 9.278 8.3105L10.3539 8.84334C10.2234 9.10654 10.0309 9.33409 9.79302 9.50645C9.55513 9.67881 9.27893 9.79081 8.98818 9.83283L6.8808 10.1377L8.40253 11.6162C8.61378 11.8212 8.77184 12.0741 8.86301 12.354C8.95419 12.6339 8.97573 12.9318 8.92577 13.2219L8.56574 15.3149L10.4577 14.3236C10.7177 14.1877 11.0068 14.1166 11.3002 14.1166C11.5936 14.1166 11.8826 14.1877 12.1426 14.3236L14.0346 15.3149L13.6746 13.2219C13.6247 12.9319 13.6463 12.6341 13.7375 12.3543C13.8287 12.0745 13.9867 11.8211 14.1978 11.6162L15.0337 12.4767ZM15.7195 10.1377L13.6122 9.83283C13.3214 9.79075 13.0451 9.67866 12.8072 9.50619C12.5693 9.33373 12.3769 9.10665 12.2465 8.84334L13.3217 8.3105C13.4117 8.49051 13.5846 8.61652 13.7838 8.64533L17.0745 9.12117C17.1877 9.13708 17.2942 9.18446 17.3819 9.25793C17.4695 9.33139 17.5348 9.42799 17.5703 9.53672C17.6057 9.64546 17.6099 9.76196 17.5824 9.87297C17.5549 9.98398 17.4968 10.085 17.4147 10.1647L15.0337 12.4767L14.1978 11.6162L15.7195 10.1377Z" fill="#B837AB"/>
</svg>
