<svg width="40" height="40" viewBox="0 0 40 40" fill="none" xmlns="http://www.w3.org/2000/svg">
<path d="M39.6289 28.8789L28.75 39.7773L23.4961 34.5039L25.2539 32.7461L28.75 36.2227L37.8711 27.1211L39.6289 28.8789ZM20 8V18H27.5V20.5H17.5V8H20ZM18.75 35.5C18.9583 35.5 19.1667 35.4935 19.375 35.4805C19.5833 35.4674 19.7917 35.4544 20 35.4414L22.2266 37.668C21.6406 37.7721 21.0612 37.8503 20.4883 37.9023C19.9154 37.9544 19.3359 37.987 18.75 38C17.0312 38 15.3776 37.7786 13.7891 37.3359C12.2005 36.8932 10.7031 36.2617 9.29688 35.4414C7.89062 34.6211 6.6276 33.6445 5.50781 32.5117C4.38802 31.3789 3.41146 30.1094 2.57812 28.7031C1.74479 27.2969 1.11328 25.806 0.683594 24.2305C0.253906 22.6549 0.0260417 20.9948 0 19.25C0 17.5312 0.221354 15.8776 0.664062 14.2891C1.10677 12.7005 1.73828 11.2031 2.55859 9.79688C3.37891 8.39062 4.35547 7.1276 5.48828 6.00781C6.62109 4.88802 7.89062 3.91146 9.29688 3.07812C10.7031 2.24479 12.194 1.61328 13.7695 1.18359C15.3451 0.753906 17.0052 0.526042 18.75 0.5C20.4688 0.5 22.1224 0.721354 23.7109 1.16406C25.2995 1.60677 26.7969 2.23828 28.2031 3.05859C29.6094 3.87891 30.8724 4.85547 31.9922 5.98828C33.112 7.12109 34.0885 8.39062 34.9219 9.79688C35.7552 11.2031 36.3867 12.694 36.8164 14.2695C37.2461 15.8451 37.474 17.5052 37.5 19.25C37.5 19.901 37.4609 20.5586 37.3828 21.2227L34.1016 24.5234C34.7005 22.7917 35 21.0339 35 19.25C35 17.7526 34.8047 16.3138 34.4141 14.9336C34.0234 13.5534 33.4766 12.2643 32.7734 11.0664C32.0703 9.86849 31.224 8.76823 30.2344 7.76562C29.2448 6.76302 28.151 5.91667 26.9531 5.22656C25.7552 4.53646 24.4596 3.98958 23.0664 3.58594C21.6732 3.18229 20.2344 2.98698 18.75 3C17.2526 3 15.8138 3.19531 14.4336 3.58594C13.0534 3.97656 11.7643 4.52344 10.5664 5.22656C9.36849 5.92969 8.26823 6.77604 7.26562 7.76562C6.26302 8.75521 5.41667 9.84896 4.72656 11.0469C4.03646 12.2448 3.48958 13.5404 3.08594 14.9336C2.68229 16.3268 2.48698 17.7656 2.5 19.25C2.5 20.7474 2.69531 22.1862 3.08594 23.5664C3.47656 24.9466 4.02344 26.2357 4.72656 27.4336C5.42969 28.6315 6.27604 29.7318 7.26562 30.7344C8.25521 31.737 9.34896 32.5833 10.5469 33.2734C11.7448 33.9635 13.0404 34.5104 14.4336 34.9141C15.8268 35.3177 17.2656 35.513 18.75 35.5Z" fill="#3778B8"/>
</svg>
