<svg width="40" height="39" viewBox="0 0 40 39" fill="none" xmlns="http://www.w3.org/2000/svg">
<path d="M1.81836 23.6873H7.41613C9.2719 23.6873 11.0517 24.4245 12.3639 25.7368C13.6761 27.049 14.4133 28.8288 14.4133 30.6845M6.01669 30.6845H20.0111C21.4957 30.6845 22.9195 31.2743 23.9693 32.3241C25.0191 33.3739 25.6089 34.7977 25.6089 36.2823C25.6089 36.6535 25.4614 37.0094 25.199 37.2719C24.9365 37.5343 24.5806 37.6818 24.2094 37.6818H1.81836M24.9092 23.6873L13.7136 13.3315C7.61205 7.20191 16.5125 -4.66536 24.9092 4.93481C33.3058 -4.63738 42.2902 7.22989 36.1047 13.3315L24.9092 23.6873Z" stroke="#3778B8" stroke-width="2" stroke-linecap="round" stroke-linejoin="round"/>
</svg>
